<?xml version="1.0" encoding="utf-8"?>
<!-- Generator: Adobe Illustrator 21.1.0, SVG Export Plug-In . SVG Version: 6.00 Build 0)  -->
<svg version="1.1" id="Layer_1" xmlns="http://www.w3.org/2000/svg" xmlns:xlink="http://www.w3.org/1999/xlink" x="0px" y="0px"
	 viewBox="0 0 43 42" style="enable-background:new 0 0 43 42;" xml:space="preserve">
<style type="text/css">
	.st0{clip-path:url(#SVGID_2_);}
	.st1{fill:#C6C6C6;}
</style>
<g>
	<defs>
		<rect id="SVGID_1_" width="43" height="42"/>
	</defs>
	<clipPath id="SVGID_2_">
		<use xlink:href="#SVGID_1_"  style="overflow:visible;"/>
	</clipPath>
	<g id="Mask_Group_10" transform="translate(-0.039 -0.001)" class="st0">
		<path id="meat_1_" class="st1" d="M42.3,29.2c-1.1-4.3-4.6-6.2-7.7-7.9c-2.9-1.6-5.7-3.1-6.5-6.3c-1.1-4.3-4.6-6.2-7.7-7.9
			c-2.9-1.6-5.7-3.1-6.5-6.3c-0.2-0.7-0.8-1.1-1.5-0.9C12.2,0,12,0.1,11.8,0.3L0.5,11.6c-0.3,0.3-0.4,0.8-0.3,1.2
			c1.1,4.3,4.6,6.2,7.7,7.9c2.9,1.6,5.7,3.1,6.5,6.3c1.1,4.3,4.6,6.2,7.7,7.9c2.9,1.6,5.7,3.1,6.5,6.3c0.2,0.7,0.8,1.1,1.5,0.9
			c0.2-0.1,0.4-0.2,0.6-0.3L42,30.4C42.3,30.1,42.4,29.6,42.3,29.2L42.3,29.2z M15.4,13.1c2.9,1.6,5.7,3.1,6.5,6.3
			c1.1,4.3,4.6,6.2,7.7,7.9c2.7,1.5,5.3,2.8,6.3,5.7L34,34.9c-1.5-3-4.4-4.6-7-6c-2.9-1.6-5.7-3.1-6.5-6.3c-1.1-4.3-4.6-6.2-7.7-7.9
			c-2.7-1.5-5.3-2.8-6.3-5.7l1.9-1.9C9.9,10.1,12.8,11.7,15.4,13.1L15.4,13.1z M30.2,38.6c-1.5-3-4.4-4.6-7-6
			c-2.9-1.6-5.7-3.1-6.5-6.3c-1.1-4.3-4.6-6.2-7.7-7.9c-2.7-1.5-5.3-2.8-6.3-5.7l1.9-1.9c1.5,3,4.4,4.6,7,6c2.9,1.6,5.7,3.1,6.5,6.3
			c1.1,4.3,4.6,6.2,7.7,7.9c2.7,1.5,5.3,2.8,6.3,5.7L30.2,38.6z M37.8,31.1c-1.5-3-4.4-4.6-7-6c-2.9-1.6-5.7-3.1-6.5-6.3
			c-1.1-4.3-4.6-6.2-7.7-7.9c-2.7-1.5-5.3-2.8-6.3-5.7l1.9-1.9c1.5,3,4.4,4.6,7,6c2.9,1.6,5.7,3.1,6.5,6.3c1.1,4.3,4.6,6.2,7.7,7.9
			c2.7,1.5,5.3,2.8,6.3,5.7L37.8,31.1z"/>
	</g>
</g>
</svg>
