<?xml version="1.0" encoding="utf-8"?>
<!-- Generator: Adobe Illustrator 21.1.0, SVG Export Plug-In . SVG Version: 6.00 Build 0)  -->
<svg version="1.1" id="Layer_1" xmlns="http://www.w3.org/2000/svg" xmlns:xlink="http://www.w3.org/1999/xlink" x="0px" y="0px"
	 viewBox="0 0 45 46" style="enable-background:new 0 0 45 46;" xml:space="preserve">
<style type="text/css">
	.st0{clip-path:url(#SVGID_2_);}
	.st1{fill:#C6C6C6;}
</style>
<g>
	<defs>
		<rect id="SVGID_1_" width="45" height="46"/>
	</defs>
	<clipPath id="SVGID_2_">
		<use xlink:href="#SVGID_1_"  style="overflow:visible;"/>
	</clipPath>
	<g id="Mask_Group_9" transform="translate(-0.236 0.494)" class="st0">
		<g id="dulce-de-leche" transform="translate(9.29 -0.082)">
			<path id="Path_1836" class="st1" d="M26.3,25.7c-0.3-0.3-0.6-0.4-1-0.4h-3.4v-5.7c0-1.6-0.4-3.3-1.1-4.7l-3.7-7.3
				c1-0.7,1.6-1.8,1.6-3V3.6c0-2-1.6-3.6-3.6-3.6H6.8c-2,0-3.6,1.6-3.6,3.6v0.9c0,1.2,0.6,2.3,1.6,3l-3.7,7.3
				C0.4,16.2,0,17.8,0,19.5v17.8c0.1,4.4,3.7,8,8.2,7.9l15.4,0c0.7,0,1.2-0.5,1.3-1.2l1.8-17.3C26.7,26.3,26.6,25.9,26.3,25.7
				L26.3,25.7z M23.5,31.3c-0.7,0.1-1.4,0.2-2.1,0.5c-1.4,0.5-2.9,0.5-4.3,0c-0.6-0.2-1.2-0.4-1.8-0.4L15,27.9h8.9L23.5,31.3z
				 M14.5,8.1l2.5,5c-0.8,0-1.7-0.2-2.4-0.6c-1.1-0.6-2.4-0.9-3.6-0.8c-1.3,0-2.5,0.3-3.6,0.8c-0.7,0.4-1.6,0.6-2.4,0.6l2.5-5H14.5z
				 M5.8,3.6c0-0.5,0.4-1,1-1h8.3c0.5,0,1,0.4,1,1v0.9c0,0.5-0.4,1-1,1H6.8c-0.5,0-1-0.4-1-1L5.8,3.6z M8.2,42.5
				c-3,0.1-5.4-2.3-5.5-5.2V19.5c0-1.2,0.3-2.4,0.8-3.5l0.1-0.2c0.4,0.1,0.8,0.1,1.2,0.1c1.3,0,2.5-0.3,3.6-0.8
				c0.8-0.4,1.6-0.6,2.5-0.6c0.9,0,1.7,0.2,2.5,0.6c1.1,0.6,2.4,0.9,3.6,0.8c0.4,0,0.8,0,1.2-0.1l0.1,0.2c0.6,1.1,0.8,2.3,0.8,3.5
				v5.7h-5.7c-0.7,0-1.3,0.6-1.3,1.3c0,0,0,0.1,0,0.1l1.6,15.9h-0.1L8.2,42.5L8.2,42.5z M16.5,42.5l-0.9-8.4
				c0.2,0.1,0.5,0.1,0.7,0.2c1.9,0.7,4.1,0.7,6,0c0.3-0.1,0.6-0.2,0.9-0.3l-0.9,8.5L16.5,42.5L16.5,42.5z"/>
		</g>
	</g>
</g>
</svg>
