<?xml version="1.0" encoding="utf-8"?>
<!-- Generator: Adobe Illustrator 21.1.0, SVG Export Plug-In . SVG Version: 6.00 Build 0)  -->
<svg version="1.1" id="Layer_1" xmlns="http://www.w3.org/2000/svg" xmlns:xlink="http://www.w3.org/1999/xlink" x="0px" y="0px"
	 viewBox="0 0 47 48" style="enable-background:new 0 0 47 48;" xml:space="preserve">
<style type="text/css">
	.st0{clip-path:url(#SVGID_2_);}
	.st1{fill:#C6C6C6;}
</style>
<g>
	<defs>
		<rect id="SVGID_1_" width="47" height="48"/>
	</defs>
	<clipPath id="SVGID_2_">
		<use xlink:href="#SVGID_1_"  style="overflow:visible;"/>
	</clipPath>
	<g id="Mask_Group_8" transform="translate(0.476 0.915)" class="st0">
		<g id="cheese" transform="translate(-0.015 2.732)">
			<g id="Group_2009" transform="translate(24.515 32.565)">
				<g id="Group_2008">
					<circle id="Ellipse_1" class="st1" cx="1.4" cy="1.4" r="1.4"/>
				</g>
			</g>
			<g id="Group_2011" transform="translate(5.518 24.424)">
				<g id="Group_2010">
					<circle id="Ellipse_2" class="st1" cx="1.4" cy="1.4" r="1.4"/>
				</g>
			</g>
			<g id="Group_2013" transform="translate(10.946 24.424)">
				<g id="Group_2012">
					<path id="Path_1832" class="st1" d="M5.4,0C2.4,0,0,2.4,0,5.4c0,3,2.4,5.4,5.4,5.4s5.4-2.4,5.4-5.4C10.9,2.4,8.4,0,5.4,0z
						 M5.4,8.1c-1.5,0-2.7-1.2-2.7-2.7s1.2-2.7,2.7-2.7c1.5,0,2.7,1.2,2.7,2.7C8.1,6.9,6.9,8.1,5.4,8.1L5.4,8.1z"/>
				</g>
			</g>
			<g id="Group_2015" transform="translate(27.228 24.424)">
				<g id="Group_2014">
					<path id="Path_1833" class="st1" d="M4.1,0C1.8,0,0,1.8,0,4.1s1.8,4.1,4.1,4.1c2.2,0,4.1-1.8,4.1-4.1C8.1,1.8,6.3,0,4.1,0z
						 M4.1,5.4c-0.7,0-1.4-0.6-1.4-1.4s0.6-1.4,1.4-1.4c0.7,0,1.4,0.6,1.4,1.4C5.4,4.8,4.8,5.4,4.1,5.4C4.1,5.4,4.1,5.4,4.1,5.4z"/>
				</g>
			</g>
			<g id="Group_2017" transform="translate(10.946 8.141)">
				<g id="Group_2016">
					<path id="Path_1834" class="st1" d="M5.4,0C2.4,0,0,1.8,0,4.1s2.4,4.1,5.4,4.1s5.4-1.8,5.4-4.1S8.5,0,5.4,0z M5.4,5.4
						c-1.7,0-2.7-0.8-2.7-1.4s1.1-1.4,2.7-1.4s2.7,0.8,2.7,1.4S7.1,5.4,5.4,5.4z"/>
				</g>
			</g>
			<g id="Group_2019" transform="translate(0 0)">
				<g id="Group_2018">
					<path id="Path_1835" class="st1" d="M43.6,27.1c0.3,0,0.6,0.1,0.9,0.2c0.7,0.2,1.5-0.1,1.7-0.8c0.1-0.1,0.1-0.3,0.1-0.5v-5.7
						c0-0.5-0.2-0.9-0.6-1.1l-11.2-7.1c-0.6-0.4-1.5-0.2-1.9,0.4c0,0.1-0.1,0.1-0.1,0.2c-0.3,0.7-1.1,1-1.8,0.7
						c-0.7-0.3-1-1.1-0.7-1.8c0.1-0.1,0.1-0.2,0.2-0.3c0.5-0.6,0.4-1.4-0.1-1.9c-0.1,0-0.1-0.1-0.2-0.1L15.7,0.2
						c-0.4-0.3-0.9-0.3-1.3-0.1C7.2,3.7,2,10.5,0.4,18.4c-0.2,0.6-0.3,1.3-0.4,1.9v19c0,0.7,0.6,1.4,1.4,1.4h5.5
						c0.7,0,1.4-0.6,1.4-1.4c0-0.7,0.6-1.4,1.4-1.4c0.7,0,1.4,0.6,1.4,1.4c0,0.7,0.6,1.4,1.4,1.4H45c0.7,0,1.4-0.6,1.4-1.4v-5.7
						c0-0.7-0.6-1.4-1.4-1.4c-0.2,0-0.3,0-0.5,0.1c-1.4,0.5-3-0.2-3.5-1.7c-0.5-1.4,0.2-3,1.7-3.5C43,27.2,43.3,27.1,43.6,27.1
						L43.6,27.1z M3,19c1.4-6.8,5.8-12.7,11.9-16l12.5,8c-0.7,2.1,0.4,4.4,2.5,5.2c1.5,0.5,3.1,0.1,4.2-0.9l6.1,3.9L3,19L3,19z
						 M43.6,35.3V38H13.4c-0.7-2.1-3.1-3.2-5.2-2.5c-1.2,0.4-2.1,1.3-2.5,2.5h-3V21.7h40.9v2.7c-3,0-5.4,2.5-5.4,5.5
						C38.3,32.9,40.7,35.2,43.6,35.3z"/>
				</g>
			</g>
		</g>
	</g>
</g>
</svg>
