<?xml version="1.0" encoding="utf-8"?>
<!-- Generator: Adobe Illustrator 21.1.0, SVG Export Plug-In . SVG Version: 6.00 Build 0)  -->
<svg version="1.1" id="Layer_1" xmlns="http://www.w3.org/2000/svg" xmlns:xlink="http://www.w3.org/1999/xlink" x="0px" y="0px"
	 viewBox="0 0 45 46" style="enable-background:new 0 0 45 46;" xml:space="preserve">
<style type="text/css">
	.st0{fill:#C6C6C6;}
</style>
<g>
	<defs>
		<rect id="SVGID_1_" y="0.5" width="45" height="45"/>
	</defs>
	<clipPath id="SVGID_2_">
		<use xlink:href="#SVGID_1_"  style="overflow:visible;"/>
	</clipPath>
</g>
<g id="Mask_Group_6" transform="translate(-183.211 -809.211)">
	<g id="leaf" transform="translate(183 818.887)">
		<g id="Group_2007" transform="translate(0 0)">
			<path id="Path_1831" class="st0" d="M45.3,8.9c-0.1-0.7-0.6-1.2-1.2-1.2c-0.4,0-9.1-0.8-14.2,4.3c-1.1,1.1-1.9,2.3-2.6,3.7
				c-0.8-3.8-2.7-7.3-5.3-10.1c-3.1-3.1-7.6-5.1-13.2-5.9c-2.5-0.4-5-0.5-7.5-0.3C0.7-0.7,0.2-0.1,0.1,0.5C-0.1,3,0,5.5,0.4,8
				c0.8,5.5,2.8,10.1,5.9,13.2s7.6,5.1,13.2,5.9c1.7,0.2,3.5,0.4,5.2,0.4c1.2,0,3,0,3.8,0c2.8,0,8.8-0.5,12.6-4.3
				C46.1,18,45.4,9.2,45.3,8.9z M15.1,12.3c-0.6-0.5-1.4-0.5-2,0.1c-0.5,0.5-0.5,1.3,0,1.9l10.4,10.4c-4-0.1-10.9-1.1-15.3-5.5
				C3,14,2.7,5.2,2.8,2C6,1.9,14.8,2.2,20,7.4c4.4,4.4,5.3,11.3,5.4,15.3L15.1,12.3z M39.1,21.1c-2.4,2.4-6.1,3.2-8.7,3.4l6.1-6.1
				c0.5-0.6,0.5-1.4-0.1-2c-0.5-0.5-1.3-0.5-1.9,0l-6.1,6.1c0.2-2.6,1-6.3,3.5-8.7c3.2-3.2,8.4-3.5,10.8-3.5
				C42.6,12.7,42.3,18,39.1,21.1z"/>
		</g>
	</g>
</g>
</svg>
